<mxfile host="Electron" agent="Mozilla/5.0 (Macintosh; Intel Mac OS X 10_15_7) AppleWebKit/537.36 (KHTML, like Gecko) draw.io/26.0.4 Chrome/128.0.6613.186 Electron/32.2.5 Safari/537.36" version="26.0.4">
  <diagram name="Page-1" id="4m8e7ZxklzOkpoP8U9No">
    <mxGraphModel dx="1103" dy="598" grid="1" gridSize="10" guides="1" tooltips="1" connect="1" arrows="1" fold="1" page="1" pageScale="1" pageWidth="850" pageHeight="1100" math="0" shadow="0">
      <root>
        <mxCell id="0" />
        <mxCell id="1" parent="0" />
        <mxCell id="wa9ycv1tfUM8wXsuKoJD-1" value="@Worksheet {&amp;nbsp;&lt;div&gt;@Tabel {&lt;/div&gt;&lt;div&gt;&lt;span style=&quot;white-space: pre;&quot;&gt;&#x9;&lt;/span&gt;&lt;span style=&quot;white-space: pre;&quot;&gt;&#x9;@&lt;/span&gt;Row {&lt;/div&gt;&lt;div&gt;&lt;span style=&quot;white-space: pre;&quot;&gt;&#x9;&lt;/span&gt;&amp;nbsp;&lt;span style=&quot;white-space: pre;&quot;&gt;&#x9;&lt;span style=&quot;white-space: pre;&quot;&gt;&#x9;&lt;/span&gt;&lt;span style=&quot;white-space: pre;&quot;&gt;&#x9;&lt;span style=&quot;white-space: pre;&quot;&gt;&#x9;&lt;/span&gt;&lt;span style=&quot;white-space: pre;&quot;&gt;&#x9;&lt;/span&gt;&lt;span style=&quot;white-space: pre;&quot;&gt;&#x9;&lt;/span&gt;&lt;span style=&quot;white-space: pre;&quot;&gt;&#x9;&lt;/span&gt;&lt;/span&gt;&lt;/span&gt;SELECT @CELL ID FROM....&lt;/div&gt;&lt;div&gt;&lt;span style=&quot;white-space: pre;&quot;&gt;&#x9;&lt;/span&gt;&lt;span style=&quot;white-space: pre;&quot;&gt;&#x9;&lt;/span&gt;}&lt;br&gt;&lt;/div&gt;&lt;div&gt;&lt;span style=&quot;white-space: pre;&quot;&gt;&#x9;&lt;/span&gt;}&lt;/div&gt;&lt;div&gt;@Table {&lt;/div&gt;&lt;div&gt;&lt;span style=&quot;white-space: pre;&quot;&gt;&#x9;&lt;span style=&quot;white-space: pre;&quot;&gt;&#x9;&lt;/span&gt;&lt;span style=&quot;white-space: pre;&quot;&gt;&#x9;&lt;/span&gt;&lt;span style=&quot;white-space: pre;&quot;&gt;&#x9;&lt;/span&gt;&lt;span style=&quot;white-space: pre;&quot;&gt;&#x9;&lt;/span&gt;&lt;span style=&quot;white-space: pre;&quot;&gt;&#x9;&lt;/span&gt;&lt;span style=&quot;white-space: pre;&quot;&gt;&#x9;&lt;/span&gt;&lt;span style=&quot;white-space: pre;&quot;&gt;&#x9;&lt;/span&gt;&lt;/span&gt;SELECT @CELL ID FROM...&lt;br&gt;&lt;/div&gt;&lt;div&gt;}&lt;/div&gt;&lt;div&gt;}&lt;/div&gt;" style="text;html=1;align=center;verticalAlign=middle;whiteSpace=wrap;rounded=0;" vertex="1" parent="1">
          <mxGeometry x="440" y="20" width="400" height="119" as="geometry" />
        </mxCell>
        <mxCell id="wa9ycv1tfUM8wXsuKoJD-10" style="rounded=0;orthogonalLoop=1;jettySize=auto;html=1;entryX=0.5;entryY=0;entryDx=0;entryDy=0;exitX=0.5;exitY=1;exitDx=0;exitDy=0;" edge="1" parent="1" source="wa9ycv1tfUM8wXsuKoJD-3" target="wa9ycv1tfUM8wXsuKoJD-4">
          <mxGeometry relative="1" as="geometry" />
        </mxCell>
        <mxCell id="wa9ycv1tfUM8wXsuKoJD-3" value="Worksheet" style="text;html=1;align=center;verticalAlign=middle;whiteSpace=wrap;rounded=0;" vertex="1" parent="1">
          <mxGeometry x="160" y="160" width="80" height="40" as="geometry" />
        </mxCell>
        <mxCell id="wa9ycv1tfUM8wXsuKoJD-11" style="rounded=0;orthogonalLoop=1;jettySize=auto;html=1;entryX=0.5;entryY=0;entryDx=0;entryDy=0;exitX=0.5;exitY=1;exitDx=0;exitDy=0;" edge="1" parent="1" source="wa9ycv1tfUM8wXsuKoJD-27" target="wa9ycv1tfUM8wXsuKoJD-7">
          <mxGeometry relative="1" as="geometry" />
        </mxCell>
        <mxCell id="wa9ycv1tfUM8wXsuKoJD-12" style="rounded=0;orthogonalLoop=1;jettySize=auto;html=1;entryX=0.5;entryY=0;entryDx=0;entryDy=0;exitX=0.5;exitY=1;exitDx=0;exitDy=0;" edge="1" parent="1" source="wa9ycv1tfUM8wXsuKoJD-27" target="wa9ycv1tfUM8wXsuKoJD-8">
          <mxGeometry relative="1" as="geometry" />
        </mxCell>
        <mxCell id="wa9ycv1tfUM8wXsuKoJD-14" style="rounded=0;orthogonalLoop=1;jettySize=auto;html=1;entryX=0.5;entryY=0;entryDx=0;entryDy=0;exitX=0.75;exitY=1;exitDx=0;exitDy=0;" edge="1" parent="1" source="wa9ycv1tfUM8wXsuKoJD-27" target="wa9ycv1tfUM8wXsuKoJD-13">
          <mxGeometry relative="1" as="geometry" />
        </mxCell>
        <mxCell id="wa9ycv1tfUM8wXsuKoJD-4" value="Body" style="text;html=1;align=center;verticalAlign=middle;whiteSpace=wrap;rounded=0;" vertex="1" parent="1">
          <mxGeometry x="160" y="240" width="80" height="40" as="geometry" />
        </mxCell>
        <mxCell id="wa9ycv1tfUM8wXsuKoJD-5" value="Row" style="text;html=1;align=center;verticalAlign=middle;whiteSpace=wrap;rounded=0;" vertex="1" parent="1">
          <mxGeometry x="40" y="400" width="80" height="40" as="geometry" />
        </mxCell>
        <mxCell id="wa9ycv1tfUM8wXsuKoJD-6" value="Cell" style="text;html=1;align=center;verticalAlign=middle;whiteSpace=wrap;rounded=0;" vertex="1" parent="1">
          <mxGeometry y="480" width="80" height="40" as="geometry" />
        </mxCell>
        <mxCell id="wa9ycv1tfUM8wXsuKoJD-7" value="Table" style="text;html=1;align=center;verticalAlign=middle;whiteSpace=wrap;rounded=0;" vertex="1" parent="1">
          <mxGeometry x="120" y="320" width="80" height="40" as="geometry" />
        </mxCell>
        <mxCell id="wa9ycv1tfUM8wXsuKoJD-8" value="Table" style="text;html=1;align=center;verticalAlign=middle;whiteSpace=wrap;rounded=0;" vertex="1" parent="1">
          <mxGeometry x="200" y="320" width="80" height="40" as="geometry" />
        </mxCell>
        <mxCell id="wa9ycv1tfUM8wXsuKoJD-9" value="Cell" style="text;html=1;align=center;verticalAlign=middle;whiteSpace=wrap;rounded=0;" vertex="1" parent="1">
          <mxGeometry x="240" y="400" width="80" height="40" as="geometry" />
        </mxCell>
        <mxCell id="wa9ycv1tfUM8wXsuKoJD-13" value="Table" style="text;html=1;align=center;verticalAlign=middle;whiteSpace=wrap;rounded=0;" vertex="1" parent="1">
          <mxGeometry x="280" y="320" width="80" height="40" as="geometry" />
        </mxCell>
        <mxCell id="wa9ycv1tfUM8wXsuKoJD-18" style="rounded=0;orthogonalLoop=1;jettySize=auto;html=1;entryX=0.5;entryY=0;entryDx=0;entryDy=0;" edge="1" parent="1" source="wa9ycv1tfUM8wXsuKoJD-15" target="wa9ycv1tfUM8wXsuKoJD-5">
          <mxGeometry relative="1" as="geometry" />
        </mxCell>
        <mxCell id="wa9ycv1tfUM8wXsuKoJD-15" value="" style="rounded=0;whiteSpace=wrap;html=1;fillColor=none;" vertex="1" parent="1">
          <mxGeometry x="120" y="320" width="80" height="40" as="geometry" />
        </mxCell>
        <mxCell id="wa9ycv1tfUM8wXsuKoJD-23" style="rounded=0;orthogonalLoop=1;jettySize=auto;html=1;entryX=0.5;entryY=0;entryDx=0;entryDy=0;" edge="1" parent="1" source="wa9ycv1tfUM8wXsuKoJD-16" target="wa9ycv1tfUM8wXsuKoJD-21">
          <mxGeometry relative="1" as="geometry" />
        </mxCell>
        <mxCell id="wa9ycv1tfUM8wXsuKoJD-16" value="" style="rounded=0;whiteSpace=wrap;html=1;fillColor=none;" vertex="1" parent="1">
          <mxGeometry x="200" y="320" width="80" height="40" as="geometry" />
        </mxCell>
        <mxCell id="wa9ycv1tfUM8wXsuKoJD-17" value="" style="rounded=0;whiteSpace=wrap;html=1;fillColor=none;" vertex="1" parent="1">
          <mxGeometry x="280" y="320" width="80" height="40" as="geometry" />
        </mxCell>
        <mxCell id="wa9ycv1tfUM8wXsuKoJD-26" style="rounded=0;orthogonalLoop=1;jettySize=auto;html=1;entryX=0.5;entryY=0;entryDx=0;entryDy=0;" edge="1" parent="1" source="wa9ycv1tfUM8wXsuKoJD-19" target="wa9ycv1tfUM8wXsuKoJD-24">
          <mxGeometry relative="1" as="geometry" />
        </mxCell>
        <mxCell id="wa9ycv1tfUM8wXsuKoJD-19" value="" style="rounded=0;whiteSpace=wrap;html=1;fillColor=none;" vertex="1" parent="1">
          <mxGeometry x="40" y="400" width="80" height="40" as="geometry" />
        </mxCell>
        <mxCell id="wa9ycv1tfUM8wXsuKoJD-20" value="..." style="rounded=0;whiteSpace=wrap;html=1;fillColor=none;" vertex="1" parent="1">
          <mxGeometry x="120" y="400" width="80" height="40" as="geometry" />
        </mxCell>
        <mxCell id="wa9ycv1tfUM8wXsuKoJD-21" value="" style="rounded=0;whiteSpace=wrap;html=1;fillColor=none;" vertex="1" parent="1">
          <mxGeometry x="240" y="400" width="80" height="40" as="geometry" />
        </mxCell>
        <mxCell id="wa9ycv1tfUM8wXsuKoJD-22" value="..." style="rounded=0;whiteSpace=wrap;html=1;fillColor=none;" vertex="1" parent="1">
          <mxGeometry x="320" y="400" width="80" height="40" as="geometry" />
        </mxCell>
        <mxCell id="wa9ycv1tfUM8wXsuKoJD-24" value="" style="rounded=0;whiteSpace=wrap;html=1;fillColor=none;" vertex="1" parent="1">
          <mxGeometry y="480" width="80" height="40" as="geometry" />
        </mxCell>
        <mxCell id="wa9ycv1tfUM8wXsuKoJD-25" value="..." style="rounded=0;whiteSpace=wrap;html=1;fillColor=none;" vertex="1" parent="1">
          <mxGeometry x="80" y="480" width="80" height="40" as="geometry" />
        </mxCell>
        <mxCell id="wa9ycv1tfUM8wXsuKoJD-27" value="" style="rounded=0;whiteSpace=wrap;html=1;fillColor=none;" vertex="1" parent="1">
          <mxGeometry x="160" y="240" width="80" height="40" as="geometry" />
        </mxCell>
        <mxCell id="wa9ycv1tfUM8wXsuKoJD-28" value="..." style="rounded=0;whiteSpace=wrap;html=1;fillColor=none;" vertex="1" parent="1">
          <mxGeometry x="360" y="320" width="80" height="40" as="geometry" />
        </mxCell>
        <mxCell id="wa9ycv1tfUM8wXsuKoJD-29" value="..." style="rounded=0;whiteSpace=wrap;html=1;fillColor=none;" vertex="1" parent="1">
          <mxGeometry x="240" y="240" width="80" height="40" as="geometry" />
        </mxCell>
        <mxCell id="wa9ycv1tfUM8wXsuKoJD-30" value="" style="rounded=0;whiteSpace=wrap;html=1;fillColor=none;" vertex="1" parent="1">
          <mxGeometry x="160" y="160" width="80" height="40" as="geometry" />
        </mxCell>
        <mxCell id="wa9ycv1tfUM8wXsuKoJD-31" value="..." style="rounded=0;whiteSpace=wrap;html=1;fillColor=none;" vertex="1" parent="1">
          <mxGeometry x="240" y="160" width="80" height="40" as="geometry" />
        </mxCell>
        <mxCell id="wa9ycv1tfUM8wXsuKoJD-34" style="edgeStyle=orthogonalEdgeStyle;rounded=0;orthogonalLoop=1;jettySize=auto;html=1;entryX=1;entryY=0.5;entryDx=0;entryDy=0;" edge="1" parent="1" source="wa9ycv1tfUM8wXsuKoJD-33" target="wa9ycv1tfUM8wXsuKoJD-29">
          <mxGeometry relative="1" as="geometry" />
        </mxCell>
        <mxCell id="wa9ycv1tfUM8wXsuKoJD-33" value="Table" style="rounded=0;whiteSpace=wrap;html=1;" vertex="1" parent="1">
          <mxGeometry x="480" y="230" width="120" height="60" as="geometry" />
        </mxCell>
        <mxCell id="wa9ycv1tfUM8wXsuKoJD-35" style="rounded=0;orthogonalLoop=1;jettySize=auto;html=1;entryX=0.5;entryY=0;entryDx=0;entryDy=0;exitX=0.5;exitY=1;exitDx=0;exitDy=0;" edge="1" parent="1" source="wa9ycv1tfUM8wXsuKoJD-36" target="wa9ycv1tfUM8wXsuKoJD-40">
          <mxGeometry relative="1" as="geometry" />
        </mxCell>
        <mxCell id="wa9ycv1tfUM8wXsuKoJD-36" value="Worksheet" style="text;html=1;align=center;verticalAlign=middle;whiteSpace=wrap;rounded=0;" vertex="1" parent="1">
          <mxGeometry x="160" y="560" width="80" height="40" as="geometry" />
        </mxCell>
        <mxCell id="wa9ycv1tfUM8wXsuKoJD-37" style="rounded=0;orthogonalLoop=1;jettySize=auto;html=1;entryX=0.5;entryY=0;entryDx=0;entryDy=0;exitX=0.5;exitY=1;exitDx=0;exitDy=0;" edge="1" parent="1" source="wa9ycv1tfUM8wXsuKoJD-57" target="wa9ycv1tfUM8wXsuKoJD-42">
          <mxGeometry relative="1" as="geometry" />
        </mxCell>
        <mxCell id="wa9ycv1tfUM8wXsuKoJD-38" style="rounded=0;orthogonalLoop=1;jettySize=auto;html=1;entryX=0.5;entryY=0;entryDx=0;entryDy=0;exitX=0.5;exitY=1;exitDx=0;exitDy=0;" edge="1" parent="1" source="wa9ycv1tfUM8wXsuKoJD-57" target="wa9ycv1tfUM8wXsuKoJD-43">
          <mxGeometry relative="1" as="geometry" />
        </mxCell>
        <mxCell id="wa9ycv1tfUM8wXsuKoJD-39" style="rounded=0;orthogonalLoop=1;jettySize=auto;html=1;entryX=0.5;entryY=0;entryDx=0;entryDy=0;exitX=0.5;exitY=1;exitDx=0;exitDy=0;" edge="1" parent="1" source="wa9ycv1tfUM8wXsuKoJD-57" target="wa9ycv1tfUM8wXsuKoJD-45">
          <mxGeometry relative="1" as="geometry" />
        </mxCell>
        <mxCell id="wa9ycv1tfUM8wXsuKoJD-40" value="Body" style="text;html=1;align=center;verticalAlign=middle;whiteSpace=wrap;rounded=0;" vertex="1" parent="1">
          <mxGeometry x="160" y="640" width="80" height="40" as="geometry" />
        </mxCell>
        <mxCell id="wa9ycv1tfUM8wXsuKoJD-41" value="Row" style="text;html=1;align=center;verticalAlign=middle;whiteSpace=wrap;rounded=0;" vertex="1" parent="1">
          <mxGeometry x="40" y="800" width="80" height="40" as="geometry" />
        </mxCell>
        <mxCell id="wa9ycv1tfUM8wXsuKoJD-42" value="Table" style="text;html=1;align=center;verticalAlign=middle;whiteSpace=wrap;rounded=0;" vertex="1" parent="1">
          <mxGeometry x="120" y="720" width="80" height="40" as="geometry" />
        </mxCell>
        <mxCell id="wa9ycv1tfUM8wXsuKoJD-43" value="Table" style="text;html=1;align=center;verticalAlign=middle;whiteSpace=wrap;rounded=0;" vertex="1" parent="1">
          <mxGeometry x="200" y="720" width="80" height="40" as="geometry" />
        </mxCell>
        <mxCell id="wa9ycv1tfUM8wXsuKoJD-44" value="Cell" style="text;html=1;align=center;verticalAlign=middle;whiteSpace=wrap;rounded=0;" vertex="1" parent="1">
          <mxGeometry x="240" y="800" width="80" height="40" as="geometry" />
        </mxCell>
        <mxCell id="wa9ycv1tfUM8wXsuKoJD-45" value="Table" style="text;html=1;align=center;verticalAlign=middle;whiteSpace=wrap;rounded=0;" vertex="1" parent="1">
          <mxGeometry x="280" y="720" width="80" height="40" as="geometry" />
        </mxCell>
        <mxCell id="wa9ycv1tfUM8wXsuKoJD-46" style="rounded=0;orthogonalLoop=1;jettySize=auto;html=1;entryX=0.5;entryY=0;entryDx=0;entryDy=0;" edge="1" parent="1" source="wa9ycv1tfUM8wXsuKoJD-47" target="wa9ycv1tfUM8wXsuKoJD-41">
          <mxGeometry relative="1" as="geometry" />
        </mxCell>
        <mxCell id="wa9ycv1tfUM8wXsuKoJD-47" value="" style="rounded=0;whiteSpace=wrap;html=1;fillColor=none;" vertex="1" parent="1">
          <mxGeometry x="120" y="720" width="80" height="40" as="geometry" />
        </mxCell>
        <mxCell id="wa9ycv1tfUM8wXsuKoJD-48" style="rounded=0;orthogonalLoop=1;jettySize=auto;html=1;entryX=0.5;entryY=0;entryDx=0;entryDy=0;" edge="1" parent="1" source="wa9ycv1tfUM8wXsuKoJD-49" target="wa9ycv1tfUM8wXsuKoJD-54">
          <mxGeometry relative="1" as="geometry" />
        </mxCell>
        <mxCell id="wa9ycv1tfUM8wXsuKoJD-49" value="" style="rounded=0;whiteSpace=wrap;html=1;fillColor=none;" vertex="1" parent="1">
          <mxGeometry x="200" y="720" width="80" height="40" as="geometry" />
        </mxCell>
        <mxCell id="wa9ycv1tfUM8wXsuKoJD-50" value="" style="rounded=0;whiteSpace=wrap;html=1;fillColor=none;" vertex="1" parent="1">
          <mxGeometry x="280" y="720" width="80" height="40" as="geometry" />
        </mxCell>
        <mxCell id="wa9ycv1tfUM8wXsuKoJD-51" style="rounded=0;orthogonalLoop=1;jettySize=auto;html=1;entryX=0.5;entryY=0;entryDx=0;entryDy=0;" edge="1" parent="1" source="wa9ycv1tfUM8wXsuKoJD-52">
          <mxGeometry relative="1" as="geometry">
            <mxPoint x="40" y="880" as="targetPoint" />
          </mxGeometry>
        </mxCell>
        <mxCell id="wa9ycv1tfUM8wXsuKoJD-52" value="" style="rounded=0;whiteSpace=wrap;html=1;fillColor=none;" vertex="1" parent="1">
          <mxGeometry x="40" y="800" width="80" height="40" as="geometry" />
        </mxCell>
        <mxCell id="wa9ycv1tfUM8wXsuKoJD-53" value="..." style="rounded=0;whiteSpace=wrap;html=1;fillColor=none;" vertex="1" parent="1">
          <mxGeometry x="120" y="800" width="80" height="40" as="geometry" />
        </mxCell>
        <mxCell id="wa9ycv1tfUM8wXsuKoJD-54" value="" style="rounded=0;whiteSpace=wrap;html=1;fillColor=none;" vertex="1" parent="1">
          <mxGeometry x="240" y="800" width="80" height="40" as="geometry" />
        </mxCell>
        <mxCell id="wa9ycv1tfUM8wXsuKoJD-55" value="..." style="rounded=0;whiteSpace=wrap;html=1;fillColor=none;" vertex="1" parent="1">
          <mxGeometry x="320" y="800" width="80" height="40" as="geometry" />
        </mxCell>
        <mxCell id="wa9ycv1tfUM8wXsuKoJD-56" value="..." style="rounded=0;whiteSpace=wrap;html=1;fillColor=none;" vertex="1" parent="1">
          <mxGeometry x="80" y="880" width="80" height="40" as="geometry" />
        </mxCell>
        <mxCell id="wa9ycv1tfUM8wXsuKoJD-63" style="rounded=0;orthogonalLoop=1;jettySize=auto;html=1;entryX=0.5;entryY=0;entryDx=0;entryDy=0;exitX=0.5;exitY=1;exitDx=0;exitDy=0;" edge="1" parent="1" source="wa9ycv1tfUM8wXsuKoJD-57" target="wa9ycv1tfUM8wXsuKoJD-58">
          <mxGeometry relative="1" as="geometry" />
        </mxCell>
        <mxCell id="wa9ycv1tfUM8wXsuKoJD-57" value="" style="rounded=0;whiteSpace=wrap;html=1;fillColor=none;" vertex="1" parent="1">
          <mxGeometry x="160" y="640" width="80" height="40" as="geometry" />
        </mxCell>
        <mxCell id="wa9ycv1tfUM8wXsuKoJD-58" value="Table" style="rounded=0;whiteSpace=wrap;html=1;fillColor=none;" vertex="1" parent="1">
          <mxGeometry x="360" y="720" width="80" height="40" as="geometry" />
        </mxCell>
        <mxCell id="wa9ycv1tfUM8wXsuKoJD-68" style="rounded=0;orthogonalLoop=1;jettySize=auto;html=1;entryX=0.5;entryY=0;entryDx=0;entryDy=0;exitX=0.5;exitY=1;exitDx=0;exitDy=0;" edge="1" parent="1" source="wa9ycv1tfUM8wXsuKoJD-59" target="wa9ycv1tfUM8wXsuKoJD-66">
          <mxGeometry relative="1" as="geometry" />
        </mxCell>
        <mxCell id="wa9ycv1tfUM8wXsuKoJD-70" style="rounded=0;orthogonalLoop=1;jettySize=auto;html=1;entryX=0.5;entryY=0;entryDx=0;entryDy=0;exitX=0.5;exitY=1;exitDx=0;exitDy=0;" edge="1" parent="1" source="wa9ycv1tfUM8wXsuKoJD-59" target="wa9ycv1tfUM8wXsuKoJD-67">
          <mxGeometry relative="1" as="geometry" />
        </mxCell>
        <mxCell id="wa9ycv1tfUM8wXsuKoJD-59" value="Body" style="rounded=0;whiteSpace=wrap;html=1;fillColor=none;" vertex="1" parent="1">
          <mxGeometry x="240" y="640" width="80" height="40" as="geometry" />
        </mxCell>
        <mxCell id="wa9ycv1tfUM8wXsuKoJD-60" value="" style="rounded=0;whiteSpace=wrap;html=1;fillColor=none;" vertex="1" parent="1">
          <mxGeometry x="160" y="560" width="80" height="40" as="geometry" />
        </mxCell>
        <mxCell id="wa9ycv1tfUM8wXsuKoJD-61" value="..." style="rounded=0;whiteSpace=wrap;html=1;fillColor=none;" vertex="1" parent="1">
          <mxGeometry x="240" y="560" width="80" height="40" as="geometry" />
        </mxCell>
        <mxCell id="wa9ycv1tfUM8wXsuKoJD-62" value="Cell" style="rounded=0;whiteSpace=wrap;html=1;fillColor=none;" vertex="1" parent="1">
          <mxGeometry y="880" width="80" height="40" as="geometry" />
        </mxCell>
        <mxCell id="wa9ycv1tfUM8wXsuKoJD-64" value="..." style="rounded=0;whiteSpace=wrap;html=1;fillColor=none;" vertex="1" parent="1">
          <mxGeometry x="320" y="640" width="80" height="40" as="geometry" />
        </mxCell>
        <mxCell id="wa9ycv1tfUM8wXsuKoJD-65" value="..." style="rounded=0;whiteSpace=wrap;html=1;fillColor=none;" vertex="1" parent="1">
          <mxGeometry x="440" y="720" width="80" height="40" as="geometry" />
        </mxCell>
        <mxCell id="wa9ycv1tfUM8wXsuKoJD-66" value="Table" style="rounded=0;whiteSpace=wrap;html=1;fillColor=none;" vertex="1" parent="1">
          <mxGeometry x="560" y="720" width="80" height="40" as="geometry" />
        </mxCell>
        <mxCell id="wa9ycv1tfUM8wXsuKoJD-67" value="Table" style="rounded=0;whiteSpace=wrap;html=1;fillColor=none;" vertex="1" parent="1">
          <mxGeometry x="640" y="720" width="80" height="40" as="geometry" />
        </mxCell>
        <mxCell id="wa9ycv1tfUM8wXsuKoJD-69" value="..." style="rounded=0;whiteSpace=wrap;html=1;fillColor=none;" vertex="1" parent="1">
          <mxGeometry x="720" y="720" width="80" height="40" as="geometry" />
        </mxCell>
        <mxCell id="wa9ycv1tfUM8wXsuKoJD-71" value="0" style="text;html=1;align=center;verticalAlign=middle;whiteSpace=wrap;rounded=0;" vertex="1" parent="1">
          <mxGeometry x="360" y="565" width="60" height="30" as="geometry" />
        </mxCell>
        <mxCell id="wa9ycv1tfUM8wXsuKoJD-72" value="1, 1" style="text;html=1;align=center;verticalAlign=middle;whiteSpace=wrap;rounded=0;" vertex="1" parent="1">
          <mxGeometry x="440" y="645" width="60" height="30" as="geometry" />
        </mxCell>
        <mxCell id="wa9ycv1tfUM8wXsuKoJD-73" value="2, 2, 2, 2" style="text;html=1;align=center;verticalAlign=middle;whiteSpace=wrap;rounded=0;" vertex="1" parent="1">
          <mxGeometry x="40" y="725" width="60" height="30" as="geometry" />
        </mxCell>
        <mxCell id="wa9ycv1tfUM8wXsuKoJD-74" style="rounded=0;orthogonalLoop=1;jettySize=auto;html=1;entryX=0.5;entryY=0;entryDx=0;entryDy=0;exitX=0.5;exitY=1;exitDx=0;exitDy=0;" edge="1" parent="1" source="wa9ycv1tfUM8wXsuKoJD-75" target="wa9ycv1tfUM8wXsuKoJD-79">
          <mxGeometry relative="1" as="geometry" />
        </mxCell>
        <mxCell id="wa9ycv1tfUM8wXsuKoJD-75" value="Worksheet" style="text;html=1;align=center;verticalAlign=middle;whiteSpace=wrap;rounded=0;" vertex="1" parent="1">
          <mxGeometry x="200" y="960" width="80" height="40" as="geometry" />
        </mxCell>
        <mxCell id="wa9ycv1tfUM8wXsuKoJD-76" style="rounded=0;orthogonalLoop=1;jettySize=auto;html=1;entryX=0.5;entryY=0;entryDx=0;entryDy=0;exitX=0.5;exitY=1;exitDx=0;exitDy=0;" edge="1" parent="1" source="wa9ycv1tfUM8wXsuKoJD-97" target="wa9ycv1tfUM8wXsuKoJD-81">
          <mxGeometry relative="1" as="geometry" />
        </mxCell>
        <mxCell id="wa9ycv1tfUM8wXsuKoJD-77" style="rounded=0;orthogonalLoop=1;jettySize=auto;html=1;entryX=0.5;entryY=0;entryDx=0;entryDy=0;exitX=0.5;exitY=1;exitDx=0;exitDy=0;" edge="1" parent="1" source="wa9ycv1tfUM8wXsuKoJD-97" target="wa9ycv1tfUM8wXsuKoJD-82">
          <mxGeometry relative="1" as="geometry" />
        </mxCell>
        <mxCell id="wa9ycv1tfUM8wXsuKoJD-79" value="Body" style="text;html=1;align=center;verticalAlign=middle;whiteSpace=wrap;rounded=0;" vertex="1" parent="1">
          <mxGeometry x="200" y="1040" width="80" height="40" as="geometry" />
        </mxCell>
        <mxCell id="wa9ycv1tfUM8wXsuKoJD-80" value="Row" style="text;html=1;align=center;verticalAlign=middle;whiteSpace=wrap;rounded=0;" vertex="1" parent="1">
          <mxGeometry x="80" y="1200" width="80" height="40" as="geometry" />
        </mxCell>
        <mxCell id="wa9ycv1tfUM8wXsuKoJD-81" value="Table" style="text;html=1;align=center;verticalAlign=middle;whiteSpace=wrap;rounded=0;" vertex="1" parent="1">
          <mxGeometry x="160" y="1120" width="80" height="40" as="geometry" />
        </mxCell>
        <mxCell id="wa9ycv1tfUM8wXsuKoJD-82" value="Table" style="text;html=1;align=center;verticalAlign=middle;whiteSpace=wrap;rounded=0;" vertex="1" parent="1">
          <mxGeometry x="240" y="1120" width="80" height="40" as="geometry" />
        </mxCell>
        <mxCell id="wa9ycv1tfUM8wXsuKoJD-83" value="Cell" style="text;html=1;align=center;verticalAlign=middle;whiteSpace=wrap;rounded=0;" vertex="1" parent="1">
          <mxGeometry x="280" y="1200" width="80" height="40" as="geometry" />
        </mxCell>
        <mxCell id="wa9ycv1tfUM8wXsuKoJD-85" style="rounded=0;orthogonalLoop=1;jettySize=auto;html=1;entryX=0.5;entryY=0;entryDx=0;entryDy=0;" edge="1" parent="1" source="wa9ycv1tfUM8wXsuKoJD-86" target="wa9ycv1tfUM8wXsuKoJD-80">
          <mxGeometry relative="1" as="geometry" />
        </mxCell>
        <mxCell id="wa9ycv1tfUM8wXsuKoJD-86" value="" style="rounded=0;whiteSpace=wrap;html=1;fillColor=none;" vertex="1" parent="1">
          <mxGeometry x="160" y="1120" width="80" height="40" as="geometry" />
        </mxCell>
        <mxCell id="wa9ycv1tfUM8wXsuKoJD-87" style="rounded=0;orthogonalLoop=1;jettySize=auto;html=1;entryX=0.5;entryY=0;entryDx=0;entryDy=0;" edge="1" parent="1" source="wa9ycv1tfUM8wXsuKoJD-88" target="wa9ycv1tfUM8wXsuKoJD-93">
          <mxGeometry relative="1" as="geometry" />
        </mxCell>
        <mxCell id="wa9ycv1tfUM8wXsuKoJD-88" value="" style="rounded=0;whiteSpace=wrap;html=1;fillColor=none;" vertex="1" parent="1">
          <mxGeometry x="240" y="1120" width="80" height="40" as="geometry" />
        </mxCell>
        <mxCell id="wa9ycv1tfUM8wXsuKoJD-90" style="rounded=0;orthogonalLoop=1;jettySize=auto;html=1;entryX=0.5;entryY=0;entryDx=0;entryDy=0;" edge="1" parent="1" source="wa9ycv1tfUM8wXsuKoJD-91">
          <mxGeometry relative="1" as="geometry">
            <mxPoint x="80" y="1280" as="targetPoint" />
          </mxGeometry>
        </mxCell>
        <mxCell id="wa9ycv1tfUM8wXsuKoJD-91" value="" style="rounded=0;whiteSpace=wrap;html=1;fillColor=none;" vertex="1" parent="1">
          <mxGeometry x="80" y="1200" width="80" height="40" as="geometry" />
        </mxCell>
        <mxCell id="wa9ycv1tfUM8wXsuKoJD-92" value="..." style="rounded=0;whiteSpace=wrap;html=1;fillColor=none;" vertex="1" parent="1">
          <mxGeometry x="160" y="1200" width="80" height="40" as="geometry" />
        </mxCell>
        <mxCell id="wa9ycv1tfUM8wXsuKoJD-93" value="" style="rounded=0;whiteSpace=wrap;html=1;fillColor=none;" vertex="1" parent="1">
          <mxGeometry x="280" y="1200" width="80" height="40" as="geometry" />
        </mxCell>
        <mxCell id="wa9ycv1tfUM8wXsuKoJD-94" value="..." style="rounded=0;whiteSpace=wrap;html=1;fillColor=none;" vertex="1" parent="1">
          <mxGeometry x="360" y="1200" width="80" height="40" as="geometry" />
        </mxCell>
        <mxCell id="wa9ycv1tfUM8wXsuKoJD-95" value="..." style="rounded=0;whiteSpace=wrap;html=1;fillColor=none;" vertex="1" parent="1">
          <mxGeometry x="120" y="1280" width="80" height="40" as="geometry" />
        </mxCell>
        <mxCell id="wa9ycv1tfUM8wXsuKoJD-97" value="" style="rounded=0;whiteSpace=wrap;html=1;fillColor=none;" vertex="1" parent="1">
          <mxGeometry x="200" y="1040" width="80" height="40" as="geometry" />
        </mxCell>
        <mxCell id="wa9ycv1tfUM8wXsuKoJD-102" value="" style="rounded=0;whiteSpace=wrap;html=1;fillColor=none;" vertex="1" parent="1">
          <mxGeometry x="200" y="960" width="80" height="40" as="geometry" />
        </mxCell>
        <mxCell id="wa9ycv1tfUM8wXsuKoJD-103" value="..." style="rounded=0;whiteSpace=wrap;html=1;fillColor=none;" vertex="1" parent="1">
          <mxGeometry x="280" y="960" width="80" height="40" as="geometry" />
        </mxCell>
        <mxCell id="wa9ycv1tfUM8wXsuKoJD-104" value="Cell" style="rounded=0;whiteSpace=wrap;html=1;fillColor=none;" vertex="1" parent="1">
          <mxGeometry x="40" y="1280" width="80" height="40" as="geometry" />
        </mxCell>
        <mxCell id="wa9ycv1tfUM8wXsuKoJD-125" style="edgeStyle=orthogonalEdgeStyle;rounded=0;orthogonalLoop=1;jettySize=auto;html=1;entryX=0.5;entryY=0;entryDx=0;entryDy=0;" edge="1" parent="1" source="wa9ycv1tfUM8wXsuKoJD-113" target="wa9ycv1tfUM8wXsuKoJD-114">
          <mxGeometry relative="1" as="geometry" />
        </mxCell>
        <mxCell id="wa9ycv1tfUM8wXsuKoJD-113" value="0" style="text;html=1;align=center;verticalAlign=middle;whiteSpace=wrap;rounded=0;strokeColor=default;" vertex="1" parent="1">
          <mxGeometry x="480" y="930" width="40" height="30" as="geometry" />
        </mxCell>
        <mxCell id="wa9ycv1tfUM8wXsuKoJD-126" style="edgeStyle=orthogonalEdgeStyle;rounded=0;orthogonalLoop=1;jettySize=auto;html=1;" edge="1" parent="1" source="wa9ycv1tfUM8wXsuKoJD-114" target="wa9ycv1tfUM8wXsuKoJD-115">
          <mxGeometry relative="1" as="geometry" />
        </mxCell>
        <mxCell id="wa9ycv1tfUM8wXsuKoJD-114" value="1" style="text;html=1;align=center;verticalAlign=middle;whiteSpace=wrap;rounded=0;strokeColor=default;" vertex="1" parent="1">
          <mxGeometry x="480" y="1010" width="40" height="30" as="geometry" />
        </mxCell>
        <mxCell id="wa9ycv1tfUM8wXsuKoJD-127" style="edgeStyle=orthogonalEdgeStyle;rounded=0;orthogonalLoop=1;jettySize=auto;html=1;" edge="1" parent="1" source="wa9ycv1tfUM8wXsuKoJD-115" target="wa9ycv1tfUM8wXsuKoJD-117">
          <mxGeometry relative="1" as="geometry" />
        </mxCell>
        <mxCell id="wa9ycv1tfUM8wXsuKoJD-115" value="2" style="text;html=1;align=center;verticalAlign=middle;whiteSpace=wrap;rounded=0;strokeColor=default;" vertex="1" parent="1">
          <mxGeometry x="480" y="1080" width="40" height="30" as="geometry" />
        </mxCell>
        <mxCell id="wa9ycv1tfUM8wXsuKoJD-128" style="edgeStyle=orthogonalEdgeStyle;rounded=0;orthogonalLoop=1;jettySize=auto;html=1;" edge="1" parent="1" source="wa9ycv1tfUM8wXsuKoJD-117" target="wa9ycv1tfUM8wXsuKoJD-119">
          <mxGeometry relative="1" as="geometry" />
        </mxCell>
        <mxCell id="wa9ycv1tfUM8wXsuKoJD-117" value="3" style="text;html=1;align=center;verticalAlign=middle;whiteSpace=wrap;rounded=0;strokeColor=default;" vertex="1" parent="1">
          <mxGeometry x="480" y="1160" width="40" height="30" as="geometry" />
        </mxCell>
        <mxCell id="wa9ycv1tfUM8wXsuKoJD-129" style="edgeStyle=orthogonalEdgeStyle;rounded=0;orthogonalLoop=1;jettySize=auto;html=1;" edge="1" parent="1" source="wa9ycv1tfUM8wXsuKoJD-119" target="wa9ycv1tfUM8wXsuKoJD-122">
          <mxGeometry relative="1" as="geometry" />
        </mxCell>
        <mxCell id="wa9ycv1tfUM8wXsuKoJD-119" value="4" style="text;html=1;align=center;verticalAlign=middle;whiteSpace=wrap;rounded=0;strokeColor=default;" vertex="1" parent="1">
          <mxGeometry x="480" y="1240" width="40" height="30" as="geometry" />
        </mxCell>
        <mxCell id="wa9ycv1tfUM8wXsuKoJD-130" style="edgeStyle=orthogonalEdgeStyle;rounded=0;orthogonalLoop=1;jettySize=auto;html=1;" edge="1" parent="1" source="wa9ycv1tfUM8wXsuKoJD-122" target="wa9ycv1tfUM8wXsuKoJD-123">
          <mxGeometry relative="1" as="geometry" />
        </mxCell>
        <mxCell id="wa9ycv1tfUM8wXsuKoJD-122" value="2" style="text;html=1;align=center;verticalAlign=middle;whiteSpace=wrap;rounded=0;strokeColor=default;" vertex="1" parent="1">
          <mxGeometry x="480" y="1320" width="40" height="30" as="geometry" />
        </mxCell>
        <mxCell id="wa9ycv1tfUM8wXsuKoJD-123" value="3" style="text;html=1;align=center;verticalAlign=middle;whiteSpace=wrap;rounded=0;strokeColor=default;" vertex="1" parent="1">
          <mxGeometry x="480" y="1400" width="40" height="30" as="geometry" />
        </mxCell>
      </root>
    </mxGraphModel>
  </diagram>
</mxfile>
